<svg width="900" height="648" viewBox="0 0 900 648" fill="none" xmlns="http://www.w3.org/2000/svg">
<path opacity="0.18" d="M855.764 529.433C846.664 550.88 833.547 570.228 817.179 586.351C800.811 602.473 781.519 615.046 760.429 623.337C732.695 634.15 702.707 636.961 673.153 639.304C560.117 648.217 446.677 650.281 333.41 645.485C244.436 641.718 181.896 607.642 102.559 570.519C91.5628 565.708 80.9152 560.077 70.6995 553.67C26.0823 524.063 4.83107 467.622 0.705629 412.3C0.393621 408.119 0.20295 403.956 0.0816133 399.793C-0.317064 383.088 0.584293 365.807 6.40845 350.111C28.093 291.49 108.886 272.046 124.417 211.353C132.442 179.926 120.049 145.326 130.016 114.529C139.289 85.9128 165.585 67.3697 191.377 53.53C299.159 -4.35178 429.076 -15.939 544.796 21.9221C619.834 46.4479 695.08 100.509 708.549 181.079C716.245 227.139 703.002 277.687 723.438 319.332C745.522 364.383 800.348 385.125 835.276 418.355C849.542 431.906 860.479 447.548 864.483 467.749C868.591 488.436 863.911 510.061 855.764 529.433Z" fill="#0B0556"/>
<g clip-path="url(#clip0)">
<path d="M889.317 537.799C879.851 559.255 866.209 578.612 849.185 594.742C832.161 610.871 812.096 623.45 790.161 631.744C761.316 642.561 730.127 645.374 699.389 647.717C581.824 656.635 463.84 658.699 346.035 653.901C253.495 650.133 188.45 616.042 105.934 578.904C94.4973 574.09 83.4232 568.456 72.7982 562.047C26.3934 532.427 4.29073 475.962 0 420.615C1.70618 420.028 3.4714 419.629 5.26426 419.425C32.1264 415.585 59.5113 411.781 86.3915 416.09C103.086 418.813 119.149 424.636 135.789 427.682C182.662 436.372 229.626 422.653 276.644 425.663C316.396 428.205 355.554 436.733 395.829 437.941C438.231 439.239 480.688 437.76 523.072 435.831C607.805 431.955 693.133 425.88 777.776 435.218C789.512 436.498 801.212 438.085 813.039 437.021C822.522 436.138 831.752 433.524 841.055 431.414C849.982 429.378 859.008 427.802 868.097 426.691C882.935 440.248 894.31 455.897 898.475 476.106C902.658 496.785 897.79 518.419 889.317 537.799Z" fill="url(#paint0_linear)"/>
<path d="M254.92 427.15C255.71 426.04 256.53 424.69 256.12 423.39C255.936 422.941 255.664 422.532 255.321 422.189C254.978 421.846 254.569 421.574 254.12 421.39C249.37 419.06 243.39 421.46 239.99 425.51C236.59 429.56 235.14 434.85 233.79 439.97C234.13 426.85 234.32 413.07 228.2 401.46C227.031 398.943 225.22 396.777 222.95 395.18C220.6 393.72 217.4 393.38 215.12 394.94C212.84 396.5 212.12 399.28 212.12 401.94C212.12 406.33 214.12 410.44 215.38 414.63C217.6 421.84 217.93 429.47 218.63 436.99C219.88 450.49 221.31 464.18 225.04 477.22C224.9 476.74 230.47 472.98 231.04 471.84C233.26 467.55 233.31 461.42 235.43 456.77C240.33 445.96 248.12 436.77 254.92 427.15Z" fill="#0B0556"/>
<path d="M254.92 427.15C255.71 426.04 256.53 424.69 256.12 423.39C255.936 422.941 255.664 422.532 255.321 422.189C254.978 421.846 254.569 421.574 254.12 421.39C249.37 419.06 243.39 421.46 239.99 425.51C236.59 429.56 235.14 434.85 233.79 439.97C234.13 426.85 234.32 413.07 228.2 401.46C227.031 398.943 225.22 396.777 222.95 395.18C220.6 393.72 217.4 393.38 215.12 394.94C212.84 396.5 212.12 399.28 212.12 401.94C212.12 406.33 214.12 410.44 215.38 414.63C217.6 421.84 217.93 429.47 218.63 436.99C219.88 450.49 221.31 464.18 225.04 477.22C224.9 476.74 230.47 472.98 231.04 471.84C233.26 467.55 233.31 461.42 235.43 456.77C240.33 445.96 248.12 436.77 254.92 427.15Z" fill="url(#paint1_linear)"/>
<path d="M416.32 164.36C423.02 162.06 430.53 162.84 437.1 165.52C442.458 167.579 447.101 171.155 450.46 175.81C452.11 178.145 453.25 180.802 453.805 183.607C454.36 186.412 454.317 189.302 453.68 192.09C452.68 195.82 450.49 199.45 451.18 203.25C451.78 206.59 454.55 209.11 457.44 210.89C460.33 212.67 463.55 213.98 466.08 216.25C468.264 218.276 469.8 220.902 470.494 223.8C471.188 226.697 471.009 229.734 469.98 232.53C469.16 234.64 467.83 236.75 468.2 238.99C468.57 241.23 470.66 242.9 472.81 243.74C474.96 244.58 477.3 244.86 479.45 245.74C481.482 246.551 483.276 247.862 484.667 249.551C486.058 251.24 487 253.252 487.405 255.402C487.811 257.552 487.668 259.77 486.989 261.85C486.309 263.929 485.116 265.804 483.52 267.3C480.59 270.06 476.57 271.3 472.68 272.3C457.592 276.091 441.971 277.298 426.48 275.87C414.55 274.76 402.6 272.08 390.69 273.46C383.26 274.32 376.08 276.75 368.69 277.72C361.3 278.69 353.15 277.98 347.3 273.31C344.365 270.791 341.996 267.68 340.35 264.18C337.43 258.43 335.6 251.89 336.67 245.54C337.74 239.19 342.2 233.16 348.45 231.54C351.23 230.83 354.16 231.02 357.03 230.87C362.706 230.556 368.225 228.893 373.13 226.02C374.61 225.15 376.13 224.02 376.53 222.37C377.19 219.63 374.6 217.37 373.22 214.89C370.46 209.97 373.51 202.82 378.97 201.4C382.17 200.57 386.09 201.3 388.34 198.88C391.16 195.88 389.73 191.1 392.77 187.94C395.49 185.12 399.29 184.06 401.47 180.55C405.74 173.63 407.68 167.34 416.32 164.36Z" fill="#3F3D56"/>
<path d="M416.32 164.36C423.02 162.06 430.53 162.84 437.1 165.52C442.458 167.579 447.101 171.155 450.46 175.81C452.11 178.145 453.25 180.802 453.805 183.607C454.36 186.412 454.317 189.302 453.68 192.09C452.68 195.82 450.49 199.45 451.18 203.25C451.78 206.59 454.55 209.11 457.44 210.89C460.33 212.67 463.55 213.98 466.08 216.25C468.264 218.276 469.8 220.902 470.494 223.8C471.188 226.697 471.009 229.734 469.98 232.53C469.16 234.64 467.83 236.75 468.2 238.99C468.57 241.23 470.66 242.9 472.81 243.74C474.96 244.58 477.3 244.86 479.45 245.74C481.482 246.551 483.276 247.862 484.667 249.551C486.058 251.24 487 253.252 487.405 255.402C487.811 257.552 487.668 259.77 486.989 261.85C486.309 263.929 485.116 265.804 483.52 267.3C480.59 270.06 476.57 271.3 472.68 272.3C457.592 276.091 441.971 277.298 426.48 275.87C414.55 274.76 402.6 272.08 390.69 273.46C383.26 274.32 376.08 276.75 368.69 277.72C361.3 278.69 353.15 277.98 347.3 273.31C344.365 270.791 341.996 267.68 340.35 264.18C337.43 258.43 335.6 251.89 336.67 245.54C337.74 239.19 342.2 233.16 348.45 231.54C351.23 230.83 354.16 231.02 357.03 230.87C362.706 230.556 368.225 228.893 373.13 226.02C374.61 225.15 376.13 224.02 376.53 222.37C377.19 219.63 374.6 217.37 373.22 214.89C370.46 209.97 373.51 202.82 378.97 201.4C382.17 200.57 386.09 201.3 388.34 198.88C391.16 195.88 389.73 191.1 392.77 187.94C395.49 185.12 399.29 184.06 401.47 180.55C405.74 173.63 407.68 167.34 416.32 164.36Z" fill="url(#paint2_linear)"/>
<path d="M217.49 480.98C234.87 504.61 265.85 514.18 294.94 517.91C591.6 555.91 632.99 483.32 634.34 481.75C639.22 476.1 567.18 412.45 355.15 426.82C340.32 427.82 208.07 468.17 217.49 480.98Z" fill="#5B55A6"/>
<path d="M293.81 444.43C291.715 445.388 289.885 446.844 288.48 448.67C287.21 450.58 286.93 453.34 288.42 455.08C289.48 456.33 291.17 456.81 292.77 457.21C316.794 463.12 341.88 463.22 365.95 457.5C375.69 455.17 385.24 451.89 395.17 450.58C403.17 449.53 411.32 449.78 419.41 450.14C449.18 451.46 478.89 454.14 508.5 457.5C525.3 459.41 542.23 461.5 559.06 459.93C560.73 459.77 562.54 459.51 563.69 458.29C566.35 455.48 563.12 450.9 559.61 449.29C554.42 446.88 547.36 445.87 545.61 440.41C545.448 439.487 545.108 438.604 544.61 437.81C543.704 436.972 542.514 436.508 541.28 436.51C473.34 428.61 404.788 427.391 336.61 432.87C320.73 434.13 307.83 436.83 293.81 444.43Z" fill="url(#paint3_linear)"/>
<path d="M282.16 378.12C282.16 378.12 294.51 354.55 348.4 373.07C402.29 391.59 479.2 424.72 479.2 424.72L473.03 448.3C473.03 448.3 346.16 433.14 328.19 423.03C310.22 412.92 278.79 411.81 282.16 378.12Z" fill="#0B0556"/>
<path d="M282.16 378.12C282.16 378.12 294.51 354.55 348.4 373.07C402.29 391.59 479.2 424.72 479.2 424.72L473.03 448.3C473.03 448.3 346.16 433.14 328.19 423.03C310.22 412.92 278.79 411.81 282.16 378.12Z" fill="url(#paint4_linear)"/>
<path d="M371.42 426.96C371.42 426.96 465.17 381.54 510.68 376.44C556.19 371.34 559.52 381.49 561.21 383.74C562.9 385.99 579.73 415.17 518.54 429.21C457.35 443.25 369.78 451.66 369.78 451.66C369.78 451.66 365.24 446.05 371.42 426.96Z" fill="#0B0556"/>
<path d="M371.42 426.96C371.42 426.96 465.17 381.54 510.68 376.44C556.19 371.34 559.52 381.49 561.21 383.74C562.9 385.99 579.73 415.17 518.54 429.21C457.35 443.25 369.78 451.66 369.78 451.66C369.78 451.66 365.24 446.05 371.42 426.96Z" fill="url(#paint5_linear)"/>
<path d="M468.1 166.19L469.39 164.9" stroke="#3CB6D5" stroke-width="3.43" stroke-miterlimit="10"/>
<path d="M409.68 240.82C405.795 243.211 401.656 245.163 397.34 246.64C399.627 250.38 402.74 253.548 406.44 255.9C411.83 259.16 418.33 260.05 424.63 260.11C428.192 260.252 431.753 259.823 435.18 258.84C439.77 257.36 443.7 254.35 447.37 251.22C449.01 249.8 450.79 247.91 450.37 245.79C447.012 245.987 443.674 245.156 440.8 243.409C437.925 241.662 435.651 239.081 434.28 236.01C433.728 234.608 433.28 233.168 432.94 231.7C432.78 231.08 432.17 227.16 431.74 226.7C431.216 226.195 430.582 225.821 429.887 225.607C429.192 225.394 428.456 225.347 427.74 225.47C424.52 226.05 420.05 224.95 417.74 227.58C415.04 230.59 413.29 238.54 409.68 240.82Z" fill="url(#paint6_linear)"/>
<path d="M420.02 238.42C421.694 239.512 423.69 240.002 425.68 239.81C427.68 239.58 429.24 234.81 430.2 233.04C430.483 232.486 430.724 231.911 430.92 231.32C431.774 229.22 432.297 227 432.47 224.74C432.47 225.37 428.3 226.03 427.76 226.11C426.02 226.37 424.25 226.46 422.5 226.64C420.07 226.89 415.21 227 416.29 230.51C416.83 232.3 418.45 237.44 420.02 238.42Z" fill="url(#paint7_linear)"/>
<path d="M397.35 246.64C397.35 246.64 383.77 248.16 380.12 255.74C376.47 263.32 323.12 332.37 322.86 336.86C322.6 341.35 348.12 367.18 348.12 367.18L359.91 341.91L356.26 334.06L379 302.62L378.1 383.82L425.93 402.92L469.68 386.1L471.3 302.34C471.3 302.34 490.39 329.28 490.95 336.02C491.51 342.76 488.71 346.69 488.71 346.69L504.99 370.26C504.99 370.26 530.25 343.88 528.57 331.53C526.89 319.18 474.68 256.3 469.68 253.54C464.68 250.78 450.36 245.83 450.36 245.83L397.35 246.64Z" fill="#0B0556"/>
<path d="M369.6 381.08C365.526 381.523 361.489 382.258 357.52 383.28C356.16 383.63 354.61 384.19 354.18 385.53C353.59 387.35 355.51 388.97 357.26 389.75C368.11 394.58 380.81 390.57 392.55 392.45C402.61 394.07 411.46 399.93 421.21 402.92C421.673 403.096 422.165 403.184 422.66 403.18C423.756 403.199 424.851 403.112 425.93 402.92C430.59 401.31 434.51 399.4 439.63 398.82L458.89 396.65C466.94 395.74 473.55 391.84 481.56 390.65C484.97 390.14 488.56 390.46 491.73 389.04C492.89 388.51 494.07 387.16 493.33 386.13C493.015 385.773 492.595 385.525 492.13 385.42C488.66 384.29 484.94 384.37 481.3 384.42C444.13 385.08 406.57 377.08 369.6 381.08Z" fill="#0B0556"/>
<path d="M369.6 381.08C365.526 381.523 361.489 382.258 357.52 383.28C356.16 383.63 354.61 384.19 354.18 385.53C353.59 387.35 355.51 388.97 357.26 389.75C368.11 394.58 380.81 390.57 392.55 392.45C402.61 394.07 411.46 399.93 421.21 402.92C421.673 403.096 422.165 403.184 422.66 403.18C423.756 403.199 424.851 403.112 425.93 402.92C430.59 401.31 434.51 399.4 439.63 398.82L458.89 396.65C466.94 395.74 473.55 391.84 481.56 390.65C484.97 390.14 488.56 390.46 491.73 389.04C492.89 388.51 494.07 387.16 493.33 386.13C493.015 385.773 492.595 385.525 492.13 385.42C488.66 384.29 484.94 384.37 481.3 384.42C444.13 385.08 406.57 377.08 369.6 381.08Z" fill="url(#paint8_linear)"/>
<path d="M470.78 288.17L471.72 301.92L488.72 328.31C490.174 330.57 491.053 333.151 491.279 335.828C491.506 338.506 491.074 341.198 490.02 343.67L488.73 346.67L497.5 354.2L506.23 334.92L470.78 288.17Z" fill="url(#paint9_linear)"/>
<path d="M380.28 355.74C382.011 356.344 383.65 357.186 385.15 358.24C388.95 361.15 390.2 366.3 390.51 371.08C390.633 371.961 390.519 372.858 390.18 373.68C389.78 374.292 389.22 374.782 388.56 375.097C387.901 375.413 387.168 375.542 386.44 375.47C382.92 375.47 379.78 373.09 376.27 372.75C374.47 372.57 372.63 372.93 370.86 372.57C366.7 371.72 364.38 367.44 361.86 364.05C359.534 360.99 356.637 358.41 353.33 356.45C346.88 352.64 350.33 345.33 357.33 346.75C365.07 348.34 372.91 352.75 380.28 355.74Z" fill="url(#paint10_linear)"/>
<path d="M469.87 353.69C468.248 353.973 466.687 354.528 465.25 355.33C463.19 356.64 461.92 358.87 460.25 360.61C458.83 362.04 457.01 363.29 456.5 365.24C456.236 366.441 456.387 367.696 456.93 368.8C457.773 370.543 459.186 371.946 460.936 372.775C462.686 373.605 464.666 373.811 466.55 373.36C468.09 372.94 469.48 372.08 471.01 371.65C475.76 370.3 481.33 373.09 485.56 370.56C486.896 369.617 488.086 368.481 489.09 367.19C491.364 364.667 494.016 362.512 496.95 360.8C497.692 360.456 498.343 359.942 498.85 359.3C499.85 357.72 498.76 355.66 497.56 354.22C494.05 350.02 492.03 348.55 486.74 349.76C481.08 351.04 475.48 352.38 469.87 353.69Z" fill="url(#paint11_linear)"/>
<path d="M358.96 432.15C349.53 433.09 340.08 429.6 330.64 430.49C327.236 430.854 323.894 431.661 320.7 432.89C319.148 433.365 317.716 434.166 316.5 435.24C314.4 437.31 313.99 440.6 314.5 443.5C315.5 449.16 319.66 453.99 324.8 456.56C327.976 458.188 331.543 458.898 335.1 458.61C336.79 458.406 338.461 458.072 340.1 457.61C343.789 456.838 347.378 455.65 350.8 454.07C352.96 452.97 354.95 451.57 357.12 450.51C360.2 449.01 363.59 448.24 366.62 446.65C366.855 446.548 367.069 446.402 367.25 446.22C367.437 445.986 367.576 445.718 367.66 445.43C369.167 441.185 369.902 436.704 369.83 432.2C369.83 431.56 370.04 430.2 369.38 429.85C368.87 429.59 366.67 430.59 366.08 430.75C363.749 431.41 361.367 431.879 358.96 432.15Z" fill="url(#paint12_linear)"/>
<path d="M490.37 445.33C494.91 446.48 499.03 448.9 503.53 450.17C507.396 451.162 511.379 451.622 515.37 451.54C521.37 451.54 527.68 451.08 532.88 448.03C533.718 447.588 534.452 446.971 535.03 446.22C536.37 444.31 535.78 441.67 534.89 439.51C533.35 435.72 530.82 432.03 527.01 430.51C522.51 428.76 517.5 430.51 512.82 431.64C501.3 434.53 489.19 434.09 477.54 436.39C476.918 436.378 476.314 436.604 475.853 437.022C475.392 437.441 475.108 438.019 475.06 438.64C474.73 440.04 473.87 442.35 474.4 443.79C475.01 445.47 476.67 444.87 478.13 444.79C482.212 444.289 486.348 444.471 490.37 445.33Z" fill="url(#paint13_linear)"/>
<path d="M499.83 440.01C499.42 440.821 498.938 441.594 498.39 442.32C497.562 443.509 497.206 444.963 497.39 446.4C497.623 447.245 498.024 448.035 498.568 448.723C499.113 449.41 499.79 449.98 500.56 450.4C504.94 453.26 510.41 453.79 515.64 453.97C518.442 454.142 521.254 454.018 524.03 453.6C526.009 453.211 527.96 452.69 529.87 452.04C531.807 451.563 533.632 450.711 535.24 449.53C536.468 448.442 537.409 447.068 537.98 445.53C538.753 443.777 538.963 441.827 538.58 439.95C538.149 438.513 537.435 437.177 536.48 436.02C535.498 434.706 534.429 433.46 533.28 432.29C532.441 431.354 531.421 430.599 530.28 430.07C528.91 429.63 527.463 429.476 526.03 429.62C517.811 429.82 509.622 430.679 501.54 432.19C500.908 432.263 500.306 432.497 499.79 432.87C498.74 433.78 499.79 434.99 499.99 436.04C500.347 437.348 500.291 438.735 499.83 440.01Z" fill="#0B0556"/>
<path d="M354.88 443.3C355.82 443.95 356.88 444.4 357.78 445.1C358.253 445.421 358.64 445.853 358.907 446.359C359.174 446.865 359.312 447.428 359.31 448C359.18 449.38 357.89 450.33 356.71 451C351.283 454.282 345.409 456.757 339.27 458.35C336.591 459.154 333.794 459.493 331 459.35C328.719 459.079 326.491 458.469 324.39 457.54C320.7 456.02 317.12 453.97 314.64 450.85C312.16 447.73 310.96 443.38 312.37 439.65C313.56 436.49 316.37 434.26 319.05 432.23C320.418 431.087 321.961 430.172 323.62 429.52C325.246 429.063 326.933 428.861 328.62 428.92C333.05 428.85 337.47 428.86 341.9 428.86C344.9 428.86 350.85 428.81 351.54 432.72C351.86 434.51 351.1 436.31 351.54 438.17C351.97 440.238 353.163 442.07 354.88 443.3Z" fill="#0B0556"/>
<path d="M499.83 440.01C499.42 440.821 498.938 441.594 498.39 442.32C497.562 443.509 497.206 444.963 497.39 446.4C497.623 447.245 498.024 448.035 498.568 448.723C499.113 449.41 499.79 449.98 500.56 450.4C504.94 453.26 510.41 453.79 515.64 453.97C518.442 454.142 521.254 454.018 524.03 453.6C526.009 453.211 527.96 452.69 529.87 452.04C531.807 451.563 533.632 450.711 535.24 449.53C536.468 448.442 537.409 447.068 537.98 445.53C538.753 443.777 538.963 441.827 538.58 439.95C538.149 438.513 537.435 437.177 536.48 436.02C535.498 434.706 534.429 433.46 533.28 432.29C532.441 431.354 531.421 430.599 530.28 430.07C528.91 429.63 527.463 429.476 526.03 429.62C517.811 429.82 509.622 430.679 501.54 432.19C500.908 432.263 500.306 432.497 499.79 432.87C498.74 433.78 499.79 434.99 499.99 436.04C500.347 437.348 500.291 438.735 499.83 440.01Z" fill="url(#paint14_linear)"/>
<path d="M354.88 443.3C355.82 443.95 356.88 444.4 357.78 445.1C358.253 445.421 358.64 445.853 358.907 446.359C359.174 446.865 359.312 447.428 359.31 448C359.18 449.38 357.89 450.33 356.71 451C351.283 454.282 345.409 456.757 339.27 458.35C336.591 459.154 333.794 459.493 331 459.35C328.719 459.079 326.491 458.469 324.39 457.54C320.7 456.02 317.12 453.97 314.64 450.85C312.16 447.73 310.96 443.38 312.37 439.65C313.56 436.49 316.37 434.26 319.05 432.23C320.418 431.087 321.961 430.172 323.62 429.52C325.246 429.063 326.933 428.861 328.62 428.92C333.05 428.85 337.47 428.86 341.9 428.86C344.9 428.86 350.85 428.81 351.54 432.72C351.86 434.51 351.1 436.31 351.54 438.17C351.97 440.238 353.163 442.07 354.88 443.3Z" fill="url(#paint15_linear)"/>
<path d="M405.94 197.64C405.94 197.64 405.1 233.01 423.63 231.04C442.16 229.07 443 196.54 443 196.54C443 196.54 435.42 177.45 419.42 180.26C403.42 183.07 405.94 197.64 405.94 197.64Z" fill="url(#paint16_linear)"/>
<path d="M415.23 182.26C417.77 192.88 428.77 200.76 439.64 199.77C441.51 199.59 443.64 198.97 444.36 197.24C444.628 196.446 444.714 195.602 444.61 194.77C444.371 189.348 442.591 184.107 439.48 179.66C437.914 177.464 435.907 175.618 433.588 174.241C431.269 172.863 428.688 171.984 426.01 171.66C418.25 170.93 411.01 175.75 405.74 181.53C402.45 185.16 392.5 201.7 403.35 202.22C406.82 202.38 410.18 199.86 411.85 197C414.49 192.43 412.21 186.54 415.23 182.26Z" fill="#3F3D56"/>
<path d="M379.94 288.87L379 302.62L356.27 334.05L359.91 341.91L357.27 346.75L344.47 335.64L379.94 288.87Z" fill="url(#paint17_linear)"/>
<path d="M398.39 249.6C399.14 251.6 401.65 252.16 403.74 252.67C407.74 253.67 411.52 255.67 415.55 256.67C419.762 257.587 424.07 257.997 428.38 257.89C433.82 257.98 439.27 258.07 444.7 257.68C451.98 257.17 459.27 255.83 466.53 256.56C467.02 256.2 466.45 255.47 465.92 255.17C462.14 253.03 458.18 251.24 454.27 249.35C451.03 247.77 448.27 247.96 444.67 248.17C434.82 248.73 424.95 248.17 415.09 248.27C409.498 248.298 403.916 248.742 398.39 249.6Z" fill="url(#paint18_linear)"/>
<path d="M485.31 298.9H368.92V387.36H485.31V298.9Z" fill="#0B0556"/>
<path d="M485.83 298.9H369.44V305.09H485.83V298.9Z" fill="url(#paint19_linear)"/>
<path d="M485.83 305.21H369.44V386.8H485.83V305.21Z" fill="url(#paint20_linear)"/>
</g>
<defs>
<linearGradient id="paint0_linear" x1="438.267" y1="576.902" x2="459.108" y2="366.567" gradientUnits="userSpaceOnUse">
<stop stop-color="white" stop-opacity="0"/>
<stop offset="0.76" stop-color="white" stop-opacity="0.76"/>
<stop offset="0.99" stop-color="white"/>
</linearGradient>
<linearGradient id="paint1_linear" x1="232.73" y1="434.19" x2="227.83" y2="508.12" gradientUnits="userSpaceOnUse">
<stop stop-opacity="0"/>
<stop offset="0.99"/>
</linearGradient>
<linearGradient id="paint2_linear" x1="40577.1" y1="9120.79" x2="39698.7" y2="20782.6" gradientUnits="userSpaceOnUse">
<stop stop-opacity="0"/>
<stop offset="0.99"/>
</linearGradient>
<linearGradient id="paint3_linear" x1="75648.9" y1="9864.27" x2="75702" y2="25696.8" gradientUnits="userSpaceOnUse">
<stop stop-opacity="0"/>
<stop offset="0.99"/>
</linearGradient>
<linearGradient id="paint4_linear" x1="44183" y1="25822.9" x2="48652.9" y2="9872.43" gradientUnits="userSpaceOnUse">
<stop stop-opacity="0"/>
<stop offset="0.99"/>
</linearGradient>
<linearGradient id="paint5_linear" x1="62181.4" y1="25012.6" x2="61466.4" y2="8948.06" gradientUnits="userSpaceOnUse">
<stop stop-opacity="0"/>
<stop offset="0.99"/>
</linearGradient>
<linearGradient id="paint6_linear" x1="397.35" y1="242.75" x2="450.41" y2="242.75" gradientUnits="userSpaceOnUse">
<stop stop-color="#ECC4D7"/>
<stop offset="0.42" stop-color="#EFD4D1"/>
<stop offset="1" stop-color="#F2EAC9"/>
</linearGradient>
<linearGradient id="paint7_linear" x1="4787.19" y1="1942.69" x2="5698.44" y2="3710.46" gradientUnits="userSpaceOnUse">
<stop stop-color="#ECC4D7"/>
<stop offset="0.42" stop-color="#EFD4D1"/>
<stop offset="1" stop-color="#F2EAC9"/>
</linearGradient>
<linearGradient id="paint8_linear" x1="33768.7" y1="5504.75" x2="34347" y2="11933.8" gradientUnits="userSpaceOnUse">
<stop stop-opacity="0"/>
<stop offset="0.99"/>
</linearGradient>
<linearGradient id="paint9_linear" x1="-178628" y1="15088.8" x2="-188554" y2="13207.5" gradientUnits="userSpaceOnUse">
<stop stop-opacity="0"/>
<stop offset="0.99"/>
</linearGradient>
<linearGradient id="paint10_linear" x1="8364.8" y1="7677.16" x2="10017.4" y2="7677.16" gradientUnits="userSpaceOnUse">
<stop stop-color="#ECC4D7"/>
<stop offset="0.42" stop-color="#EFD4D1"/>
<stop offset="1" stop-color="#F2EAC9"/>
</linearGradient>
<linearGradient id="paint11_linear" x1="13473" y1="6505.51" x2="15311.2" y2="6505.51" gradientUnits="userSpaceOnUse">
<stop stop-color="#ECC4D7"/>
<stop offset="0.42" stop-color="#EFD4D1"/>
<stop offset="1" stop-color="#F2EAC9"/>
</linearGradient>
<linearGradient id="paint12_linear" x1="9294.42" y1="10149.4" x2="12381.9" y2="10149.4" gradientUnits="userSpaceOnUse">
<stop stop-color="#ECC4D7"/>
<stop offset="0.42" stop-color="#EFD4D1"/>
<stop offset="1" stop-color="#F2EAC9"/>
</linearGradient>
<linearGradient id="paint13_linear" x1="20277.3" y1="7684.51" x2="24070.4" y2="7684.51" gradientUnits="userSpaceOnUse">
<stop stop-color="#ECC4D7"/>
<stop offset="0.42" stop-color="#EFD4D1"/>
<stop offset="1" stop-color="#F2EAC9"/>
</linearGradient>
<linearGradient id="paint14_linear" x1="14772" y1="8612.61" x2="16489.4" y2="8612.61" gradientUnits="userSpaceOnUse">
<stop stop-opacity="0"/>
<stop offset="0.99"/>
</linearGradient>
<linearGradient id="paint15_linear" x1="7875.02" y1="10703" x2="10135.6" y2="10703" gradientUnits="userSpaceOnUse">
<stop stop-opacity="0"/>
<stop offset="0.99"/>
</linearGradient>
<linearGradient id="paint16_linear" x1="9823.03" y1="5191.86" x2="11207" y2="5191.86" gradientUnits="userSpaceOnUse">
<stop stop-color="#ECC4D7"/>
<stop offset="0.42" stop-color="#EFD4D1"/>
<stop offset="1" stop-color="#F2EAC9"/>
</linearGradient>
<linearGradient id="paint17_linear" x1="6544.27" y1="9919.52" x2="16372.1" y2="7793.24" gradientUnits="userSpaceOnUse">
<stop stop-opacity="0"/>
<stop offset="0.99"/>
</linearGradient>
<linearGradient id="paint18_linear" x1="18892.4" y1="1779.94" x2="19130.9" y2="226.569" gradientUnits="userSpaceOnUse">
<stop stop-color="white" stop-opacity="0"/>
<stop offset="0.76" stop-color="white" stop-opacity="0.76"/>
<stop offset="0.99" stop-color="white"/>
</linearGradient>
<linearGradient id="paint19_linear" x1="31350.1" y1="1225.11" x2="31350.5" y2="1075.15" gradientUnits="userSpaceOnUse">
<stop stop-color="white" stop-opacity="0"/>
<stop offset="0.76" stop-color="white" stop-opacity="0.76"/>
<stop offset="0.99" stop-color="white"/>
</linearGradient>
<linearGradient id="paint20_linear" x1="28156.4" y1="19645.3" x2="32201.2" y2="8469.76" gradientUnits="userSpaceOnUse">
<stop stop-color="white" stop-opacity="0"/>
<stop offset="0.76" stop-color="white" stop-opacity="0.76"/>
<stop offset="0.99" stop-color="white"/>
</linearGradient>
<clipPath id="clip0">
<rect width="900" height="386" fill="white" transform="translate(0 163)"/>
</clipPath>
</defs>
</svg>
