<svg width="901" height="641" viewBox="0 0 901 641" fill="none" xmlns="http://www.w3.org/2000/svg">
<path opacity="0.18" d="M11.1291 529.838C20.5829 551.277 34.2086 570.62 51.2115 586.736C68.2144 602.853 88.2543 615.422 110.163 623.711C138.972 634.519 170.123 637.329 200.823 639.671C318.244 648.582 334.34 528.795 452 524C544.425 520.235 627.5 524 823 524C834.423 519.19 845.908 508.904 856.52 502.5C902.868 472.902 895.067 468.049 899.352 412.745C899.676 408.565 899.874 404.404 900 400.243C900.414 383.543 899.478 366.268 893.428 350.577C870.902 291.977 786.976 272.539 770.842 211.867C762.506 180.45 775.38 145.862 765.026 115.076C755.393 86.469 728.078 67.9322 701.285 54.0972C589.323 -3.76485 454.367 -15.3481 334.159 22.5C256.21 47.0176 178.046 101.061 164.055 181.603C156.06 227.647 169.817 278.178 148.588 319.809C125.648 364.844 68.6946 385.579 32.4124 418.797C17.5933 432.344 6.23145 447.981 2.07202 468.175C-2.19543 488.855 2.6662 510.472 11.1291 529.838Z" fill="#0B0556"/>
<g clip-path="url(#clip0)">
<path d="M662.191 376.146C660.951 377.79 659.462 379.23 657.777 380.414C655.271 381.766 652.514 382.585 649.677 382.818L606.585 389.315C606.156 389.344 605.742 389.484 605.383 389.72C605.144 389.979 604.963 390.288 604.854 390.623C604.744 390.959 604.708 391.314 604.749 391.665C604.548 399.737 605.638 407.789 607.975 415.517C608.098 416.149 608.403 416.731 608.853 417.191C609.434 417.585 610.121 417.793 610.824 417.786C625.323 419.015 639.889 418.623 654.429 418.231C656.873 418.266 659.313 417.998 661.692 417.435C665.742 416.3 669.049 413.531 672.1 410.681C678.648 404.59 705.148 380.103 706.755 376.781C708.885 372.021 710.602 367.087 711.885 362.032C713.235 357.17 703.366 356.562 703.569 351.511C703.711 348.018 703.292 344.525 702.327 341.165C701.608 338.168 700.119 335.412 698.007 333.169C696.522 331.819 698.817 322.662 696.765 322.553C694.389 330.657 683.643 346.865 678.972 353.807C673.78 361.547 668.179 369.004 662.191 376.146Z" fill="#0B0556"/>
<path d="M662.191 376.146C660.951 377.79 659.462 379.23 657.777 380.414C655.271 381.766 652.514 382.585 649.677 382.818L606.585 389.315C606.156 389.344 605.742 389.484 605.383 389.72C605.144 389.979 604.963 390.288 604.854 390.623C604.744 390.959 604.708 391.314 604.749 391.665C604.548 399.737 605.638 407.789 607.975 415.517C608.098 416.149 608.403 416.731 608.853 417.191C609.434 417.585 610.121 417.793 610.824 417.786C625.323 419.015 639.889 418.623 654.429 418.231C656.873 418.266 659.313 417.998 661.692 417.435C665.742 416.3 669.049 413.531 672.1 410.681C678.648 404.59 705.148 380.103 706.755 376.781C708.885 372.021 710.602 367.087 711.885 362.032C713.235 357.17 703.366 356.562 703.569 351.511C703.711 348.018 703.292 344.525 702.327 341.165C701.608 338.168 700.119 335.412 698.007 333.169C696.522 331.819 698.817 322.662 696.765 322.553C694.389 330.657 683.643 346.865 678.972 353.807C673.78 361.547 668.179 369.004 662.191 376.146Z" fill="url(#paint0_linear)"/>
<path d="M771.232 307.724C774.134 310.312 776.841 313.111 779.332 316.097C785.299 323.431 789.268 332.156 792.967 340.854C802.808 364.004 811.381 388.761 808.829 413.788C808.781 415.294 808.374 416.766 807.641 418.083C806.479 419.573 804.847 420.625 803.011 421.068C798.272 422.58 793.21 422.648 788.161 422.688C768.707 422.864 749.226 423.04 729.786 422.094C726.776 421.946 723.59 421.716 721.092 420.014C719.268 418.617 717.813 416.795 716.853 414.706C711.629 404.874 710.103 393.502 706.053 383.156C700.653 369.65 685.803 357.372 688.935 343.137C702.327 282.697 765.103 302.146 771.232 307.724Z" fill="#0B0556"/>
<path d="M683.319 257.656C685.6 268.745 687.99 280.13 694.119 289.679C696.353 293.535 699.585 296.717 703.474 298.89C707.43 300.876 712.452 301.146 716.151 298.715C718 297.513 720.025 295.622 722.037 296.513C723.495 297.175 723.967 298.985 724.17 300.565C724.676 304.447 724.622 308.382 724.008 312.248C723.757 313.337 723.693 314.46 723.819 315.571C724.08 316.598 724.634 317.528 725.413 318.247C726.191 318.966 727.162 319.444 728.206 319.623C730.295 319.927 732.427 319.593 734.322 318.664C737.27 317.344 739.85 315.323 741.836 312.775C743.823 310.227 745.155 307.232 745.716 304.05C745.999 301.901 746.134 299.735 746.121 297.567C746.377 287.95 747.903 278.375 747.592 268.772C747.282 259.169 744.892 249.174 738.372 242.083C734.606 238.222 730.133 235.122 725.196 232.953C717.838 229.442 709.63 226.97 701.584 228.253C698.382 228.759 695.328 229.953 692.632 231.753C689.935 233.553 687.661 235.916 685.965 238.68C681.753 245.149 681.739 249.971 683.319 257.656Z" fill="#FFDAD2"/>
<path d="M663.217 233.223C662.668 228.716 663.505 224.149 665.615 220.129C667.725 216.11 671.009 212.828 675.029 210.722C678.607 208.939 682.589 208.183 686.45 207.156C695.495 204.725 704.176 200.7 713.45 199.836C722.725 198.972 733.39 202.227 737.521 210.641C738.277 212.181 739.019 214.044 740.68 214.45C741.587 214.547 742.505 214.465 743.38 214.207C749.576 213.113 755.152 218.407 757.946 224.039C762.455 233.156 762.685 243.785 761.699 253.901C760.795 263.261 758.405 273.377 750.899 279.077C750.157 279.644 749.063 280.157 748.348 279.55C748.02 279.207 747.816 278.765 747.767 278.293C747.012 274.745 746.731 271.111 746.93 267.489C747.079 264.787 747.511 261.924 746.809 259.263C746.107 256.603 743.852 254.077 741.098 254.158C738.547 254.158 736.495 256.535 735.86 259.02C735.408 261.55 735.505 264.148 736.144 266.638C735.739 267.651 734.321 266.435 734.078 265.382C732.215 256.9 731.797 247.405 725.911 241.07C724.713 242.31 723.841 243.828 723.373 245.487C722.493 244.575 721.374 243.929 720.145 243.624C718.915 243.318 717.625 243.364 716.42 243.758C714.712 244.502 713.142 245.529 711.776 246.797C697.439 257.994 666.227 254.671 663.217 233.223Z" fill="#3F3D56"/>
<path d="M767.1 321.554C771.636 324.849 773.85 330.644 773.985 336.235C774.12 341.827 768.207 377.308 762.632 387.383C758.311 395.217 749.307 415.665 735.631 421.311C731.581 422.986 671.709 422.283 643.926 419.271C644.101 412.694 644.425 406.116 644.857 399.539C644.817 398.671 645.079 397.816 645.6 397.121C646.302 396.392 647.301 391.624 648.3 391.624C664.5 391.692 680.835 396.648 697.035 397.027C699.388 397.179 701.75 397.038 704.068 396.608C705.966 396.134 707.785 395.388 709.468 394.393C721.969 387.316 728.881 373.418 733.768 359.898C737.508 349.471 740.518 338.68 745.918 328.942C747.835 325.471 749.55 322.094 753.33 320.568C757.771 318.772 762.983 318.569 767.1 321.554Z" fill="#0B0556"/>
<path d="M767.1 321.554C771.636 324.849 773.85 330.644 773.985 336.235C774.12 341.827 768.207 377.308 762.632 387.383C758.311 395.217 749.307 415.665 735.631 421.311C731.581 422.986 671.709 422.283 643.926 419.271C644.101 412.694 644.425 406.116 644.857 399.539C644.817 398.671 645.079 397.816 645.6 397.121C646.302 396.392 647.301 391.624 648.3 391.624C664.5 391.692 680.835 396.648 697.035 397.027C699.388 397.179 701.75 397.038 704.068 396.608C705.966 396.134 707.785 395.388 709.468 394.393C721.969 387.316 728.881 373.418 733.768 359.898C737.508 349.471 740.518 338.68 745.918 328.942C747.835 325.471 749.55 322.094 753.33 320.568C757.771 318.772 762.983 318.569 767.1 321.554Z" fill="url(#paint1_linear)"/>
<path d="M646.302 390.355C637.891 389.558 628.549 391.435 623.217 397.986C622.655 398.583 622.288 399.336 622.164 400.147C622.169 400.876 622.395 401.587 622.812 402.186C625.957 407.413 632.788 408.655 638.526 410.722C641.51 411.792 644.36 413.206 647.017 414.936C648.513 416.123 650.243 416.979 652.093 417.448C656.143 418.056 659.505 414.436 661.341 410.817C663.447 406.765 666.741 398.445 662.691 394.609C659.383 391.57 650.46 390.733 646.302 390.355Z" fill="#FFDAD2"/>
<path d="M576.655 388.275C575.158 389.126 573.871 390.303 572.888 391.719C572.409 392.435 572.124 393.264 572.063 394.123C572.001 394.983 572.165 395.844 572.537 396.621C573.174 397.579 574.043 398.359 575.062 398.891C582.527 403.334 591.68 404.131 599.24 408.345C600.791 409.473 602.57 410.247 604.451 410.614C605.557 410.638 606.654 410.407 607.656 409.939C608.658 409.47 609.539 408.777 610.23 407.913C611.606 406.193 612.663 404.239 613.348 402.146C622.191 378.915 589.372 380.171 576.655 388.275Z" fill="#FFDAD2"/>
<path d="M364.759 416.151H838.583C842.728 416.151 846.089 419.511 846.089 423.654C846.089 427.798 842.728 431.157 838.583 431.157H364.759C360.613 431.157 357.253 427.798 357.253 423.654C357.253 419.511 360.613 416.151 364.759 416.151Z" fill="#474192"/>
<path d="M451.86 431.386H719.688V524.323H451.86V431.386Z" fill="#0B0556"/>
<path d="M717.865 431.386H823.071V524.323H717.865V431.386Z" fill="#0B0556"/>
<path d="M451.848 431.386H717.92V524.323H451.848V431.386Z" fill="url(#paint2_linear)"/>
<path d="M717.865 431.386H823.071V524.323H717.865V431.386Z" fill="url(#paint3_linear)"/>
<path d="M642.292 415.895H468.898C464.036 415.895 460.096 411.952 460.096 407.089C460.096 402.225 464.036 398.283 468.898 398.283H642.292C647.153 398.283 651.094 402.225 651.094 407.089C651.094 411.952 647.153 415.895 642.292 415.895Z" fill="#474192"/>
<path d="M642.292 415.895H468.898C464.036 415.895 460.096 411.952 460.096 407.089C460.096 402.225 464.036 398.283 468.898 398.283H642.292C647.153 398.283 651.094 402.225 651.094 407.089C651.094 411.952 647.153 415.895 642.292 415.895Z" fill="url(#paint4_linear)"/>
<path d="M582.163 415.922H449.093L413.993 326.875C413.527 325.689 413.358 324.406 413.5 323.139C413.642 321.872 414.091 320.659 414.808 319.605C415.525 318.551 416.488 317.688 417.614 317.091C418.741 316.493 419.995 316.18 421.27 316.178H525.692C530.744 316.188 535.676 317.715 539.849 320.561C544.023 323.408 547.246 327.442 549.101 332.143L582.163 415.922Z" fill="#0B0556"/>
<path d="M575.399 416.016H449.012L415.68 331.427C415.236 330.3 415.073 329.081 415.207 327.877C415.341 326.673 415.767 325.52 416.449 324.518C417.131 323.516 418.047 322.697 419.118 322.131C420.188 321.565 421.381 321.269 422.593 321.27H521.764C526.568 321.268 531.262 322.712 535.234 325.415C539.207 328.117 542.275 331.954 544.039 336.424L575.399 416.016Z" fill="#3D3788"/>
<path d="M575.399 416.016H449.012L415.68 331.427C415.236 330.3 415.073 329.081 415.207 327.877C415.341 326.673 415.767 325.52 416.449 324.518C417.131 323.516 418.047 322.697 419.118 322.131C420.188 321.565 421.381 321.269 422.593 321.27H521.764C526.568 321.268 531.262 322.712 535.234 325.415C539.207 328.117 542.275 331.954 544.039 336.424L575.399 416.016Z" fill="url(#paint5_linear)"/>
<path d="M771.232 307.724C774.134 310.312 776.841 313.111 779.332 316.097C785.299 323.431 789.268 332.156 792.967 340.854C802.808 364.004 811.381 388.761 808.829 413.788C808.781 415.294 808.374 416.766 807.641 418.083C806.479 419.573 804.847 420.625 803.011 421.068C798.272 422.58 793.21 422.648 788.161 422.688C768.707 422.864 749.226 423.04 729.786 422.094C726.776 421.946 723.59 421.716 721.092 420.014C719.268 418.617 717.813 416.795 716.853 414.706C711.629 404.874 710.103 393.502 706.053 383.156C700.653 369.65 685.803 357.372 688.935 343.137C702.327 282.697 765.103 302.146 771.232 307.724Z" fill="url(#paint6_linear)"/>
</g>
<defs>
<linearGradient id="paint0_linear" x1="705.108" y1="360.141" x2="637.262" y2="385.985" gradientUnits="userSpaceOnUse">
<stop offset="0.01"/>
<stop offset="0.12" stop-opacity="0.75"/>
<stop offset="1" stop-opacity="0"/>
</linearGradient>
<linearGradient id="paint1_linear" x1="-16701.1" y1="28210.6" x2="-18882.2" y2="22009.3" gradientUnits="userSpaceOnUse">
<stop offset="0.01" stop-color="#474192"/>
<stop offset="0.12" stop-color="#474192"/>
<stop offset="1" stop-color="#1F196A"/>
</linearGradient>
<linearGradient id="paint2_linear" x1="-69253.7" y1="20236.1" x2="-67748.4" y2="34716.7" gradientUnits="userSpaceOnUse">
<stop offset="0.01"/>
<stop offset="0.12" stop-opacity="0.75"/>
<stop offset="1" stop-opacity="0"/>
</linearGradient>
<linearGradient id="paint3_linear" x1="-8152.04" y1="20873.6" x2="-11609.5" y2="39434.6" gradientUnits="userSpaceOnUse">
<stop offset="0.01"/>
<stop offset="0.12" stop-opacity="0.75"/>
<stop offset="1" stop-opacity="0"/>
</linearGradient>
<linearGradient id="paint4_linear" x1="-49948.2" y1="5119.39" x2="-49949.2" y2="4639.76" gradientUnits="userSpaceOnUse">
<stop offset="0.01"/>
<stop offset="0.12" stop-opacity="0.75"/>
<stop offset="1" stop-opacity="0"/>
</linearGradient>
<linearGradient id="paint5_linear" x1="-48728.2" y1="27311.6" x2="-48954.7" y2="17610.2" gradientUnits="userSpaceOnUse">
<stop offset="0.01"/>
<stop offset="0.12" stop-opacity="0.75"/>
<stop offset="1" stop-opacity="0"/>
</linearGradient>
<linearGradient id="paint6_linear" x1="-14761.4" y1="34128.7" x2="-12866.9" y2="22867.5" gradientUnits="userSpaceOnUse">
<stop offset="0.01"/>
<stop offset="0.12" stop-opacity="0.75"/>
<stop offset="1" stop-opacity="0"/>
</linearGradient>
<clipPath id="clip0">
<rect width="543" height="449" fill="white" transform="matrix(-1 0 0 1 900.002 79)"/>
</clipPath>
</defs>
</svg>
