<svg width="936" height="574" viewBox="0 0 936 574" fill="none" xmlns="http://www.w3.org/2000/svg">
<path opacity="0.18" d="M827.5 457.5C818.399 478.947 704.5 512.989 685.5 523C664.5 535 629.5 553.5 608 554C580.266 564.812 518.554 563.157 489 565.5C378.557 568.213 432.347 569.229 315 572C249.29 569.15 283.923 581.043 189.5 563.5C176.256 558.773 139.038 534.206 131.902 522.422C87.2852 492.814 5.75002 467.622 1.62457 412.3C1.31257 408.119 1.1219 403.956 1.00056 399.793C0.601881 383.088 1.50324 365.807 7.32739 350.111C29.012 291.49 109.805 272.046 125.336 211.353C133.361 179.926 120.968 145.326 130.935 114.529C140.208 85.9128 166.504 67.3697 192.296 53.53C300.078 -4.35178 429.995 -15.939 545.715 21.9221C620.753 46.4479 695.999 100.509 709.467 181.079C717.164 227.139 855.063 218.355 875.5 260C897.583 305.051 892.072 316.881 927 350.111C941.266 363.662 931.496 404.299 935.5 424.5C939.608 445.188 835.647 438.128 827.5 457.5Z" fill="#0B0556"/>
<path opacity="0.41" d="M687.66 522.199C678.188 527.914 667.548 533.123 656.451 538.743C614.096 560.323 564.717 562.659 518.1 564.427L294.866 572.952C257.263 574.373 218.255 575.557 183.636 560.86C163.672 552.143 145.998 538.921 131.999 522.231L687.66 522.199Z" fill="#0B0556"/>
<path d="M393.293 182.305C393.293 182.305 361.942 219.75 382.843 251.843C403.744 283.937 440.826 307.806 454.939 332.085C469.052 356.364 443.446 382.696 434.559 387.621C425.671 392.546 344.703 452.234 394.856 513.532H564.133C564.133 513.532 618.99 457.996 527.556 390.92C527.556 390.92 462.248 357.596 523.372 310.268C584.497 262.941 595.468 217.887 566.485 182.715L393.293 182.305Z" fill="#0B0556"/>
<path d="M393.635 182C393.635 182 362.284 219.445 383.185 251.539C404.086 283.632 441.168 307.501 455.281 331.78C469.394 356.059 443.788 382.391 434.901 387.316C426.013 392.242 345.045 451.93 395.198 513.228H564.474C564.474 513.228 619.332 457.692 527.898 390.616C527.898 390.616 462.59 357.291 523.714 309.964C584.839 262.636 595.81 217.582 566.827 182.41L393.635 182Z" fill="url(#paint0_linear)"/>
<path d="M576.083 166.976H380.143C375.714 166.976 372.124 170.567 372.124 174.996V175.012C372.124 179.441 375.714 183.031 380.143 183.031H576.083C580.512 183.031 584.102 179.441 584.102 175.012V174.996C584.102 170.567 580.512 166.976 576.083 166.976Z" fill="#0B0556"/>
<path d="M576.083 514.164H380.143C375.714 514.164 372.124 517.754 372.124 522.183V522.199C372.124 526.628 375.714 530.219 380.143 530.219H576.083C580.512 530.219 584.102 526.628 584.102 522.199V522.183C584.102 517.754 580.512 514.164 576.083 514.164Z" fill="#0B0556"/>
<path d="M576.083 166.976H380.143C375.714 166.976 372.124 170.567 372.124 174.996V175.012C372.124 179.441 375.714 183.031 380.143 183.031H576.083C580.512 183.031 584.102 179.441 584.102 175.012V174.996C584.102 170.567 580.512 166.976 576.083 166.976Z" fill="url(#paint1_linear)"/>
<path d="M576.083 514.164H380.143C375.714 514.164 372.124 517.754 372.124 522.183V522.199C372.124 526.628 375.714 530.219 380.143 530.219H576.083C580.512 530.219 584.102 526.628 584.102 522.199V522.183C584.102 517.754 580.512 514.164 576.083 514.164Z" fill="url(#paint2_linear)"/>
<path d="M549.846 428.271C521.162 412.958 426.255 410.416 408.243 423.535C425.056 401.276 448.151 388.174 448.151 388.174C470.883 373.966 496.741 386.311 496.741 386.311C496.741 386.311 529.624 403.139 549.846 428.271Z" fill="url(#paint3_linear)"/>
<path d="M549.246 512.301H407.391L401.913 507.376C385.716 479.655 389.694 455.171 400.334 435.69C402.667 431.478 405.305 427.441 408.228 423.614C426.24 410.417 521.147 412.958 549.83 428.35C552.766 431.973 555.406 435.827 557.724 439.874C559.256 442.548 560.596 445.328 561.733 448.193C575.878 483.917 549.246 512.301 549.246 512.301Z" fill="#0B0556"/>
<path d="M557.771 439.795C550.999 464.453 483.465 426.834 452.003 424.008C431.228 422.161 409.285 434.806 409.285 434.806C409.285 434.806 402.197 437.379 400.303 435.659C402.635 431.446 405.273 427.41 408.196 423.582C426.208 410.385 521.115 412.927 549.799 428.318C552.76 431.924 555.426 435.761 557.771 439.795Z" fill="url(#paint4_linear)"/>
<path d="M407.912 272.002C407.912 272.002 456.502 310.268 459.644 317.672C462.785 325.076 488.059 329.401 495.952 322.818C503.845 316.236 523.894 303.685 543.753 275.286C563.612 246.886 498.304 265.42 476.361 269.54C454.418 273.66 416.8 246.902 407.912 272.002Z" fill="#0B0556"/>
<path d="M407.912 272.002C407.912 272.002 426.729 284.347 443.447 280.638C460.164 276.928 471.136 266.24 494.121 268.293C517.106 270.345 540.09 280.227 547.415 269.54C554.74 258.852 546.894 250.186 523.894 253.075C500.893 255.964 462.769 256.358 444.489 255.127C426.208 253.896 392.773 256.784 407.912 272.002Z" fill="#0B0556"/>
<path d="M407.912 272.002C407.912 272.002 426.729 284.347 443.447 280.638C460.164 276.928 471.136 266.24 494.121 268.293C517.106 270.345 540.09 280.227 547.415 269.54C554.74 258.852 546.894 250.186 523.894 253.075C500.893 255.964 462.769 256.358 444.489 255.127C426.208 253.896 392.773 256.784 407.912 272.002Z" fill="url(#paint5_linear)"/>
<path d="M475.857 335.653C474.521 336.531 473.434 337.737 472.699 339.157C472.435 339.593 472.265 340.08 472.2 340.585C472.135 341.091 472.176 341.605 472.321 342.093C472.544 342.63 472.924 343.086 473.412 343.401C473.899 343.717 474.471 343.877 475.052 343.862C476.043 343.767 476.985 343.389 477.767 342.772C479.345 341.746 481.082 340.436 480.845 338.842C480.608 337.247 478.146 336.111 476.03 335.479" fill="#0B0556"/>
<path d="M484.664 350.255C484.132 350.391 483.633 350.632 483.196 350.965C482.975 351.155 482.849 351.36 483.023 351.565C483.381 351.833 483.824 351.962 484.27 351.928C484.693 351.903 485.111 351.829 485.517 351.707C486.243 351.486 487.096 351.218 486.922 350.902C486.748 350.587 485.691 350.35 484.728 350.223" fill="#0B0556"/>
<path d="M476.171 354.88C475.639 355.016 475.14 355.258 474.703 355.591C474.482 355.78 474.372 356.001 474.529 356.191C474.887 356.459 475.331 356.588 475.777 356.554C476.2 356.536 476.62 356.462 477.024 356.333C477.75 356.128 478.602 355.859 478.444 355.528C478.287 355.196 477.197 354.975 476.234 354.849" fill="#0B0556"/>
<path d="M489.67 376.429C488.985 376.137 488.251 375.982 487.507 375.971C487.096 375.971 486.733 376.066 486.639 376.366C486.648 376.613 486.716 376.855 486.837 377.072C486.958 377.289 487.128 377.474 487.333 377.613C487.745 377.924 488.203 378.169 488.691 378.339C489.591 378.686 490.601 379.033 490.901 378.67C491.201 378.307 490.459 377.265 489.749 376.429" fill="#0B0556"/>
<path d="M464.6 404.497C463.921 404.207 463.192 404.051 462.453 404.039C462.027 404.039 461.664 404.149 461.585 404.433C461.506 404.718 461.743 405.254 462.264 405.681C462.679 405.997 463.143 406.242 463.637 406.407C464.521 406.754 465.548 407.101 465.832 406.738C466.116 406.375 465.39 405.333 464.695 404.497" fill="#0B0556"/>
<defs>
<linearGradient id="paint0_linear" x1="376.002" y1="347.614" x2="582.139" y2="347.614" gradientUnits="userSpaceOnUse">
<stop offset="0.02" stop-color="white" stop-opacity="0"/>
<stop offset="0.32" stop-color="white" stop-opacity="0.39"/>
<stop offset="0.68" stop-color="white" stop-opacity="0.68"/>
<stop offset="1" stop-color="white"/>
</linearGradient>
<linearGradient id="paint1_linear" x1="54121.3" y1="2398.24" x2="54122.5" y2="2082.92" gradientUnits="userSpaceOnUse">
<stop offset="0.01"/>
<stop offset="0.13" stop-opacity="0.69"/>
<stop offset="1" stop-opacity="0"/>
</linearGradient>
<linearGradient id="paint2_linear" x1="54233.7" y1="5726.62" x2="54233.7" y2="6479.9" gradientUnits="userSpaceOnUse">
<stop offset="0.01"/>
<stop offset="0.13" stop-opacity="0.69"/>
<stop offset="1" stop-opacity="0"/>
</linearGradient>
<linearGradient id="paint3_linear" x1="39230.1" y1="13326.1" x2="39119.1" y2="14993.9" gradientUnits="userSpaceOnUse">
<stop offset="0.02" stop-color="white" stop-opacity="0"/>
<stop offset="0.32" stop-color="white" stop-opacity="0.39"/>
<stop offset="0.68" stop-color="white" stop-opacity="0.68"/>
<stop offset="1" stop-color="white"/>
</linearGradient>
<linearGradient id="paint4_linear" x1="43694.6" y1="9659.55" x2="43584.8" y2="12260.7" gradientUnits="userSpaceOnUse">
<stop offset="0.01"/>
<stop offset="0.13" stop-opacity="0.69"/>
<stop offset="1" stop-opacity="0"/>
</linearGradient>
<linearGradient id="paint5_linear" x1="39517.3" y1="6415.67" x2="39510.7" y2="5382.28" gradientUnits="userSpaceOnUse">
<stop offset="0.01"/>
<stop offset="0.13" stop-opacity="0.69"/>
<stop offset="1" stop-opacity="0"/>
</linearGradient>
</defs>
</svg>
