<svg width="700" height="512" viewBox="0 0 700 512" fill="none" xmlns="http://www.w3.org/2000/svg">
<path d="M691.726 427.948C684.37 445.284 673.768 460.924 660.537 473.955C647.306 486.987 631.713 497.151 614.665 503.852C592.247 512.592 568.008 514.864 544.119 516.758C452.75 523.963 411.648 494.119 320.092 490.242C248.173 487.198 235.5 483.5 192 512C193.475 530.037 91.2575 517.179 83 512C46.9353 488.068 3.90502 377.986 0.57037 333.268C0.318169 329.888 0.164047 326.523 0.0659692 323.159C-0.256287 309.656 0.472292 295.687 5.18004 283C22.708 235.616 88.014 219.899 100.568 170.84C107.055 145.436 97.0371 117.469 105.094 92.5756C112.59 69.4445 133.844 54.4559 154.693 43.269C241.814 -3.5176 346.828 -12.8837 440.366 17.7199C501.021 37.5445 561.843 81.2431 572.73 146.369C578.951 183.6 568.246 224.458 584.765 258.121C602.616 294.536 646.933 311.302 675.165 338.162C686.696 349.116 695.537 361.759 698.774 378.088C702.095 394.81 698.312 412.289 691.726 427.948Z" fill="#0B0556" fill-opacity="0.5"/>
</svg>
