<svg width="31" height="24" viewBox="0 0 31 24" fill="none" xmlns="http://www.w3.org/2000/svg">
<path d="M23.7071 1.29289C23.3166 0.902369 22.6834 0.902369 22.2929 1.29289L15.9289 7.65685C15.5384 8.04738 15.5384 8.68054 15.9289 9.07107C16.3195 9.46159 16.9526 9.46159 17.3431 9.07107L23 3.41421L28.6569 9.07107C29.0474 9.46159 29.6805 9.46159 30.0711 9.07107C30.4616 8.68054 30.4616 8.04738 30.0711 7.65685L23.7071 1.29289ZM24 22V2H22V22H24Z" fill="#373946"/>
<path d="M10.0532 8.51709H5.92236L5.05811 11H3.13184L7.16016 0.335938H8.82275L12.8584 11H10.9248L10.0532 8.51709ZM6.44238 7.02295H9.5332L7.98779 2.59912L6.44238 7.02295Z" fill="#373946"/>
<path d="M5.82715 22.5205H11.5254V24H3.58594V22.7988L9.10107 14.8301H3.62256V13.3359H11.3496V14.5078L5.82715 22.5205Z" fill="#39C874"/>
</svg>
