<svg width="31" height="24" viewBox="0 0 31 24" fill="none" xmlns="http://www.w3.org/2000/svg">
<path d="M22.2929 22.7071C22.6834 23.0976 23.3166 23.0976 23.7071 22.7071L30.0711 16.3431C30.4616 15.9526 30.4616 15.3195 30.0711 14.9289C29.6805 14.5384 29.0474 14.5384 28.6569 14.9289L23 20.5858L17.3431 14.9289C16.9526 14.5384 16.3195 14.5384 15.9289 14.9289C15.5384 15.3195 15.5384 15.9526 15.9289 16.3431L22.2929 22.7071ZM22 2L22 22H24L24 2L22 2Z" fill="#373946"/>
<path d="M10.0532 8.51709H5.92236L5.05811 11H3.13184L7.16016 0.335938H8.82275L12.8584 11H10.9248L10.0532 8.51709ZM6.44238 7.02295H9.5332L7.98779 2.59912L6.44238 7.02295Z" fill="#39C874"/>
<path d="M5.82715 22.5205H11.5254V24H3.58594V22.7988L9.10107 14.8301H3.62256V13.3359H11.3496V14.5078L5.82715 22.5205Z" fill="#373946"/>
</svg>
