<svg width="24" height="25" viewBox="0 0 24 25" fill="none" xmlns="http://www.w3.org/2000/svg">
<g clip-path="url(#clip0)">
<path d="M8.94791 21.673V21.673C8.94796 22.3865 8.3695 22.9649 7.65595 22.9649C6.9424 22.9649 6.36398 22.3865 6.36398 21.673C6.36398 20.9594 6.9424 20.381 7.65595 20.381C8.36949 20.381 8.94791 20.9594 8.94791 21.673ZM7.65595 19.0674C6.21691 19.0674 5.05039 20.2339 5.05039 21.6729C5.05039 23.112 6.21696 24.2785 7.65595 24.2785C9.09499 24.2785 10.2615 23.1119 10.2615 21.6729C10.2616 20.2339 9.09498 19.0674 7.65595 19.0674Z" fill="#454C5B" stroke="#454C5B" stroke-width="0.2"/>
<path d="M19.527 21.673V21.673C19.5271 22.3865 18.9486 22.9649 18.235 22.9649C17.5215 22.9649 16.9431 22.3865 16.9431 21.673C16.9431 20.9594 17.5215 20.381 18.235 20.381C18.9486 20.381 19.527 20.9594 19.527 21.673ZM18.235 19.0674C16.796 19.0674 15.6295 20.2339 15.6295 21.6729C15.6295 23.112 16.7961 24.2785 18.235 24.2785C19.674 24.2785 20.8406 23.1119 20.8406 21.6729C20.8406 20.2339 19.6741 19.0674 18.235 19.0674Z" fill="#454C5B" stroke="#454C5B" stroke-width="0.2"/>
<path d="M23.9625 4.48675L23.9626 4.48672L23.9603 4.48422C23.8277 4.33935 23.6463 4.24867 23.4509 4.22948L23.4509 4.22913L23.4425 4.22901L5.39023 3.97944L4.91134 2.51614L4.91135 2.51613L4.91084 2.51464C4.54403 1.45108 3.54808 0.733077 2.42312 0.721173V0.721167H2.42206H0.556797C0.194049 0.721167 -0.1 1.01522 -0.1 1.37796C-0.1 1.74071 0.194049 2.03476 0.556797 2.03476H2.42094C2.98385 2.04765 3.47944 2.40914 3.66368 2.94125C3.66374 2.94145 3.66381 2.94164 3.66388 2.94184L7.1871 13.567L6.92396 14.1722L6.92389 14.1722L6.92244 14.1759C6.60031 15.0066 6.69706 15.9415 7.18237 16.6886L7.18258 16.6889C7.6638 17.4236 8.47339 17.877 9.35122 17.9034L9.35122 17.9034H9.35423H20.1839C20.5467 17.9034 20.8407 17.6094 20.8407 17.2466C20.8407 16.8839 20.5467 16.5898 20.1839 16.5898H9.35544C8.91225 16.5783 8.50438 16.345 8.26975 15.9688L8.26973 15.9687C8.03683 15.5956 7.98851 15.1362 8.1385 14.7228L8.33635 14.2777L19.9994 13.0587L20 13.0587C21.3294 12.9122 22.423 11.9453 22.7311 10.6437L24.066 5.05387C24.1359 4.86021 24.0966 4.64358 23.9625 4.48675ZM21.4509 10.3466L21.4508 10.3466L21.4504 10.3485C21.2792 11.1169 20.6268 11.6838 19.8419 11.746L19.8395 11.7463L8.33822 12.9351L5.81829 5.29409L22.6184 5.54074L21.4509 10.3466Z" fill="#454C5B" stroke="#454C5B" stroke-width="0.2"/>
</g>
<defs>
<clipPath id="clip0">
<rect width="24" height="24" fill="white" transform="translate(0 0.5)"/>
</clipPath>
</defs>
</svg>
