<svg width="32" height="29" viewBox="0 0 32 29" fill="none" xmlns="http://www.w3.org/2000/svg">
<g clip-path="url(#clip0)">
<path d="M8.94791 26.173V26.173C8.94796 26.8865 8.3695 27.4649 7.65595 27.4649C6.9424 27.4649 6.36398 26.8865 6.36398 26.173C6.36398 25.4594 6.9424 24.881 7.65595 24.881C8.36949 24.881 8.94791 25.4594 8.94791 26.173ZM7.65595 23.5674C6.21691 23.5674 5.05039 24.7339 5.05039 26.1729C5.05039 27.612 6.21696 28.7785 7.65595 28.7785C9.09499 28.7785 10.2615 27.6119 10.2615 26.1729C10.2616 24.7339 9.09498 23.5674 7.65595 23.5674Z" fill="#39C874" stroke="#39C874" stroke-width="0.2"/>
<path d="M19.527 26.173V26.173C19.5271 26.8865 18.9486 27.4649 18.235 27.4649C17.5215 27.4649 16.9431 26.8865 16.9431 26.173C16.9431 25.4594 17.5215 24.881 18.235 24.881C18.9486 24.881 19.527 25.4594 19.527 26.173ZM18.235 23.5674C16.796 23.5674 15.6295 24.7339 15.6295 26.1729C15.6295 27.612 16.7961 28.7785 18.235 28.7785C19.674 28.7785 20.8406 27.6119 20.8406 26.1729C20.8406 24.7339 19.6741 23.5674 18.235 23.5674Z" fill="#39C874" stroke="#39C874" stroke-width="0.2"/>
<path d="M23.9625 8.98673L23.9626 8.98669L23.9603 8.98419C23.8277 8.83933 23.6463 8.74865 23.4509 8.72946L23.4509 8.7291L23.4425 8.72899L5.39023 8.47942L4.91134 7.01611L4.91135 7.01611L4.91084 7.01461C4.54403 5.95106 3.54808 5.23305 2.42312 5.22115V5.22114H2.42206H0.556797C0.194049 5.22114 -0.1 5.51519 -0.1 5.87794C-0.1 6.24069 0.194049 6.53474 0.556797 6.53474H2.42094C2.98385 6.54762 3.47944 6.90911 3.66368 7.44122C3.66374 7.44142 3.66381 7.44162 3.66388 7.44182L7.1871 18.067L6.92396 18.6722L6.92389 18.6722L6.92244 18.6759C6.60031 19.5066 6.69706 20.4415 7.18237 21.1886L7.18258 21.1889C7.6638 21.9236 8.47339 22.377 9.35122 22.4034L9.35122 22.4034H9.35423H20.1839C20.5467 22.4034 20.8407 22.1094 20.8407 21.7466C20.8407 21.3839 20.5467 21.0898 20.1839 21.0898H9.35544C8.91225 21.0783 8.50438 20.845 8.26975 20.4687L8.26973 20.4687C8.03683 20.0956 7.98851 19.6362 8.1385 19.2228L8.33635 18.7776L19.9994 17.5587L20 17.5586C21.3294 17.4122 22.423 16.4453 22.7311 15.1437L24.066 9.55384C24.1359 9.36018 24.0966 9.14356 23.9625 8.98673ZM21.4509 14.8466L21.4508 14.8466L21.4504 14.8484C21.2792 15.6169 20.6268 16.1838 19.8419 16.246L19.8395 16.2462L8.33822 17.435L5.81829 9.79406L22.6184 10.0407L21.4509 14.8466Z" fill="#39C874" stroke="#39C874" stroke-width="0.2"/>
</g>
<path d="M26 1V6M26 6H31M26 6H21M26 6V11" stroke="#39C874" stroke-width="1.5" stroke-linecap="round" stroke-linejoin="round"/>
<defs>
<clipPath id="clip0">
<rect width="24" height="24" fill="white" transform="translate(0 5)"/>
</clipPath>
</defs>
</svg>
