<svg width="20" height="21" viewBox="0 0 20 21" fill="none" xmlns="http://www.w3.org/2000/svg">
<path d="M17.6556 13.3804C16.5478 13.3825 15.4468 13.2074 14.3943 12.8617C13.9022 12.6898 13.3554 12.8056 12.9752 13.1622L10.9102 14.7201C8.69241 13.6066 6.89295 11.8075 5.77907 9.58994L7.2958 7.57463C7.67874 7.19142 7.81569 6.62654 7.65084 6.11051C7.30383 5.05661 7.12777 3.95399 7.1293 2.84447C7.1293 2.05172 6.48664 1.40906 5.69389 1.40906H2.34459C1.55184 1.40906 0.90918 2.05172 0.90918 2.84447C0.919721 12.0889 8.41116 19.5803 17.6556 19.5909C18.4483 19.5909 19.091 18.9482 19.091 18.1555V14.8158C19.091 14.023 18.4483 13.3804 17.6556 13.3804Z" stroke="#454C5B" stroke-width="1.5"/>
</svg>
