<svg width="16" height="17" viewBox="0 0 16 17" fill="none" xmlns="http://www.w3.org/2000/svg">
<g clip-path="url(#clip0)">
<path d="M5.10396 12.9449C4.18142 12.9449 3.43359 13.6928 3.43359 14.6153C3.43359 15.5379 4.18146 16.2857 5.10396 16.2857C6.02651 16.2857 6.77434 15.5378 6.77434 14.6153C6.77437 13.6928 6.02651 12.9449 5.10396 12.9449ZM5.10396 15.5433C4.59145 15.5433 4.17599 15.1279 4.17599 14.6154C4.17599 14.1028 4.59145 13.6874 5.10396 13.6874C5.61648 13.6874 6.03194 14.1028 6.03194 14.6154C6.03198 15.1279 5.61648 15.5433 5.10396 15.5433Z" fill="#454C5B"/>
<path d="M12.1567 12.9449C11.2342 12.9449 10.4863 13.6928 10.4863 14.6153C10.4863 15.5379 11.2342 16.2857 12.1567 16.2857C13.0792 16.2857 13.8271 15.5378 13.8271 14.6153C13.8271 13.6928 13.0792 12.9449 12.1567 12.9449ZM12.1567 15.5433C11.6442 15.5433 11.2287 15.1279 11.2287 14.6154C11.2287 14.1028 11.6442 13.6874 12.1567 13.6874C12.6692 13.6874 13.0847 14.1028 13.0847 14.6154C13.0847 15.1279 12.6692 15.5433 12.1567 15.5433Z" fill="#454C5B"/>
<path d="M15.9244 3.20116C15.847 3.11672 15.7413 3.06386 15.6274 3.05267L3.54494 2.88563L3.21087 1.86483C2.97552 1.18243 2.3365 0.721749 1.61471 0.714111H0.371198C0.166185 0.714111 0 0.880296 0 1.08531C0 1.29032 0.166185 1.45651 0.371198 1.45651H1.61471C2.0183 1.46542 2.37369 1.72458 2.50559 2.10611L4.8627 9.21453L4.67712 9.64139C4.47011 10.1752 4.53228 10.776 4.84415 11.2561C5.15304 11.7277 5.6727 12.0187 6.23615 12.0356H13.456C13.661 12.0356 13.8272 11.8694 13.8272 11.6644C13.8272 11.4594 13.661 11.2932 13.456 11.2932H6.23612C5.91792 11.2853 5.62502 11.1179 5.4566 10.8478C5.29006 10.581 5.25585 10.2523 5.36381 9.95689L5.5123 9.62282L13.326 8.80617C14.1843 8.71164 14.8903 8.0874 15.0892 7.24714L15.9801 3.51662C16.0202 3.40919 15.9989 3.28837 15.9244 3.20116ZM14.3653 7.08014C14.2449 7.62103 13.7856 8.02001 13.2332 8.06381L5.5123 8.86188L3.78623 3.62802L15.1634 3.79506L14.3653 7.08014Z" fill="#454C5B"/>
</g>
<defs>
<clipPath id="clip0">
<rect width="16" height="16" fill="white" transform="translate(0 0.5)"/>
</clipPath>
</defs>
</svg>
