<svg width="50" height="50" viewBox="0 0 50 50" fill="none" xmlns="http://www.w3.org/2000/svg">
<g clip-path="url(#clip0)">
<path d="M4.21938 12.7639L0.0102818 48.1242C-0.0403899 48.5503 0.0934085 48.9764 0.378803 49.2969C0.664198 49.6175 1.07229 49.8011 1.50154 49.8011H48.4983C48.9273 49.8011 49.3358 49.6175 49.621 49.2969C49.9064 48.9766 50.0394 48.5484 49.9896 48.1242L45.7798 12.7639C45.6908 12.009 45.0499 11.4397 44.2896 11.4397H37.5603C36.8139 5.11937 31.4322 0.198975 24.9146 0.198975C18.397 0.198975 13.0153 5.12041 12.2686 11.4397H5.71148C4.94889 11.4397 4.30879 12.0088 4.21938 12.7639ZM24.9135 3.20117C29.7728 3.20117 33.7999 6.78127 34.5261 11.4397H15.301C16.0267 6.78127 20.0543 3.20117 24.9135 3.20117ZM13.672 14.4417H36.1541H42.9554L46.8067 46.7992H3.19087L7.04255 14.4417H13.672Z" fill="#0B0556"/>
<path d="M15.864 34.3891H20.6105V39.136C20.6105 39.6958 21.0644 40.15 21.6245 40.15H28.375C28.9349 40.15 29.3891 39.6958 29.3891 39.136V34.3891H34.1355C34.6959 34.3891 35.1495 33.9351 35.1495 33.375V26.625C35.1495 26.0649 34.6959 25.6109 34.1355 25.6109H29.3891V20.864C29.3891 20.3042 28.9349 19.85 28.375 19.85H21.6245C21.0644 19.85 20.6105 20.3042 20.6105 20.864V25.6109H15.864C15.3039 25.6109 14.85 26.0649 14.85 26.625V33.375C14.85 33.9351 15.3039 34.3891 15.864 34.3891ZM16.8783 27.639H21.6245C22.1849 27.639 22.6385 27.1848 22.6385 26.625V21.8781H27.361V26.625C27.361 27.1848 27.8149 27.639 28.375 27.639H33.1215V32.361H28.375C27.8149 32.361 27.361 32.8152 27.361 33.375V38.1217H22.6385V33.375C22.6385 32.8152 22.1849 32.361 21.6245 32.361H16.8783V27.639Z" fill="#39C874" stroke="#39C874" stroke-width="0.3"/>
</g>
<defs>
<clipPath id="clip0">
<rect width="50" height="50" fill="white"/>
</clipPath>
</defs>
</svg>
