<svg width="50" height="50" viewBox="0 0 50 50" fill="none" xmlns="http://www.w3.org/2000/svg">
<g clip-path="url(#clip0)">
<path d="M15.9499 38.7904C13.0117 38.7904 10.63 41.1722 10.63 44.1103C10.63 47.0485 13.0118 49.4302 15.9499 49.4302C18.8881 49.4302 21.2698 47.0484 21.2698 44.1103C21.2699 41.1722 18.8881 38.7904 15.9499 38.7904ZM15.9499 46.9103C14.4035 46.9103 13.15 45.6568 13.15 44.1104C13.15 42.564 14.4035 41.3105 15.9499 41.3105C17.4963 41.3105 18.7498 42.564 18.7498 44.1104C18.7499 45.6568 17.4963 46.9103 15.9499 46.9103Z" fill="#39C874" stroke="#39C874" stroke-width="0.2"/>
<path d="M37.9899 38.7904C35.0518 38.7904 32.67 41.1722 32.67 44.1103C32.67 47.0485 35.0519 49.4302 37.9899 49.4302C40.928 49.4302 43.3098 47.0484 43.3098 44.1103C43.3098 41.1722 40.9281 38.7904 37.9899 38.7904ZM37.9899 46.9103C36.4436 46.9103 35.19 45.6568 35.19 44.1104C35.19 42.564 36.4436 41.3105 37.9899 41.3105C39.5363 41.3105 40.7899 42.564 40.7899 44.1104C40.79 45.6568 39.5363 46.9103 37.9899 46.9103Z" fill="#39C874" stroke="#39C874" stroke-width="0.2"/>
<path d="M49.8396 8.37611L49.8396 8.37607L49.8374 8.37357C49.5791 8.09149 49.2259 7.91491 48.8454 7.87753L48.8454 7.87718L48.837 7.87706L11.1508 7.35606L10.129 4.23395L10.129 4.23395L10.1285 4.23245C9.37924 2.06001 7.34488 0.593388 5.04701 0.569073V0.569067H5.04596H1.15999C0.464099 0.569067 -0.1 1.13317 -0.1 1.82906C-0.1 2.52495 0.464099 3.08905 1.15999 3.08905H5.04484C6.2636 3.11643 7.3367 3.89905 7.73527 5.05116C7.73534 5.05135 7.73541 5.05155 7.73547 5.05174L15.089 27.2281L14.5243 28.527L14.5242 28.5269L14.5228 28.5307C13.8642 30.2287 14.062 32.1399 15.0541 33.6672L15.0543 33.6676C16.0375 35.1685 17.6915 36.0948 19.485 36.1487L19.485 36.1488H19.488H42.0499C42.7457 36.1488 43.3098 35.5847 43.3098 34.8888C43.3098 34.1929 42.7457 33.6288 42.0499 33.6288H19.4892C18.5289 33.6044 17.645 33.099 17.1367 32.2839L17.1367 32.2838C16.6332 31.4772 16.5293 30.4837 16.8547 29.5902L17.2938 28.6022L41.6542 26.0562L41.6547 26.0562C44.3789 25.7561 46.6198 23.7748 47.2511 21.1078L50.0336 9.456C50.1688 9.08772 50.0949 8.6747 49.8396 8.37611ZM44.7945 20.5393L44.7941 20.5411C44.4271 22.1886 43.0284 23.4038 41.3459 23.5372L41.3459 23.5372L41.3435 23.5374L17.2957 26.0231L11.9709 9.87709L47.2589 10.3952L44.7945 20.5393Z" fill="#39C874" stroke="#39C874" stroke-width="0.2"/>
</g>
<defs>
<clipPath id="clip0">
<rect width="50" height="50" fill="white"/>
</clipPath>
</defs>
</svg>
