<svg width="24" height="24" viewBox="0 0 24 24" fill="none" xmlns="http://www.w3.org/2000/svg">
<g clip-path="url(#clip0)">
<path d="M8.9999 11.5002C6.24297 11.5002 4 9.25745 4 6.50051C4 3.74358 6.24297 1.50061 8.9999 1.50061C11.7568 1.50061 13.9998 3.74358 13.9998 6.50051C13.9998 9.25745 11.7568 11.5002 8.9999 11.5002ZM8.9999 3.00056C7.07003 3.00056 5.49995 4.57046 5.49995 6.50051C5.49995 8.43039 7.07003 10.0003 8.9999 10.0003C10.9298 10.0003 12.4998 8.43039 12.4998 6.50051C12.4998 4.57046 10.9298 3.00056 8.9999 3.00056Z" fill="#454C5B"/>
<path d="M17.2495 22.4999H0.749977C0.335988 22.4999 0 22.164 0 21.75V18.25C0 15.6312 2.13091 13.5002 4.74979 13.5002H13.2496C15.8685 13.5002 17.9994 15.6312 17.9994 18.25V21.75C17.9994 22.164 17.6635 22.4999 17.2495 22.4999ZM1.49995 21H16.4995V18.25C16.4995 16.4582 15.0415 15.0002 13.2496 15.0002H4.74979C2.95798 15.0002 1.49995 16.4582 1.49995 18.25V21Z" fill="#454C5B"/>
<path d="M23.2496 11.7503H14.75C14.336 11.7503 14 11.4143 14 11.0003C14 10.5864 14.336 10.2504 14.75 10.2504H23.2496C23.6636 10.2504 23.9996 10.5864 23.9996 11.0003C23.9996 11.4143 23.6636 11.7503 23.2496 11.7503Z" fill="#454C5B"/>
<path d="M19.2498 15.7502C19.0577 15.7502 18.8658 15.6771 18.7197 15.5303C18.4268 15.2372 18.4268 14.7622 18.7197 14.4692L22.1896 10.9993L18.7197 7.52938C18.4268 7.23642 18.4268 6.76146 18.7197 6.4685C19.0127 6.17554 19.4876 6.17554 19.7808 6.4685L23.7806 10.4683C24.0736 10.7613 24.0736 11.2364 23.7806 11.5294L19.7808 15.5292C19.6338 15.6771 19.4417 15.7502 19.2498 15.7502Z" fill="#454C5B"/>
</g>
<defs>
<clipPath id="clip0">
<rect width="24" height="24" fill="white"/>
</clipPath>
</defs>
</svg>
