<svg width="31" height="24" viewBox="0 0 31 24" fill="none" xmlns="http://www.w3.org/2000/svg">
<circle cx="10" cy="12" r="9" stroke="#39C874" stroke-width="2"/>
<path d="M6.65502 7.29H14.335V8.46H6.65502V7.29ZM11.17 18H9.82002V10.8H6.65502V9.63H14.335V10.8H11.17V18Z" fill="#373946"/>
<path d="M23.7071 1.29289C23.3166 0.902369 22.6834 0.902369 22.2929 1.29289L15.9289 7.65685C15.5384 8.04738 15.5384 8.68054 15.9289 9.07107C16.3195 9.46159 16.9526 9.46159 17.3431 9.07107L23 3.41421L28.6569 9.07107C29.0474 9.46159 29.6805 9.46159 30.0711 9.07107C30.4616 8.68054 30.4616 8.04738 30.0711 7.65685L23.7071 1.29289ZM24 22L24 2H22L22 22H24Z" fill="#373946"/>
</svg>
